<svg width="9256" height="2434" viewBox="0 0 9256 2434" fill="none" xmlns="http://www.w3.org/2000/svg">
<path d="M35 2341.6V184.78H1409.76V493.78H391.303V1093.24H1296.25V1402.24H391.303V2341.6H35Z" fill="black"/>
<path d="M1731.06 2341.6V734.8H2074.75V1043.8H2090.52C2113.64 961.4 2161.99 889.3 2235.56 827.5C2309.13 765.7 2411.09 734.8 2541.41 734.8H2632.85V1059.25H2497.27C2360.63 1059.25 2255.53 1080.88 2181.96 1124.14C2110.49 1167.4 2074.75 1231.26 2074.75 1315.72V2341.6H1731.06Z" fill="black"/>
<path d="M3565.96 2378.68C3448.24 2378.68 3343.14 2359.11 3250.65 2319.97C3158.15 2280.83 3079.33 2225.21 3014.16 2153.11C2949 2078.95 2898.55 1990.37 2862.81 1887.37C2829.18 1782.31 2812.36 1665.92 2812.36 1538.2C2812.36 1410.48 2829.18 1295.12 2862.81 1192.12C2898.55 1087.06 2949 998.48 3014.16 926.38C3079.33 852.22 3158.15 795.57 3250.65 756.43C3343.14 717.29 3448.24 697.72 3565.96 697.72C3685.78 697.72 3790.88 718.32 3881.27 759.52C3973.76 800.72 4050.49 858.4 4111.45 932.56C4172.41 1004.66 4217.6 1089.12 4247.03 1185.94C4278.56 1282.76 4294.33 1386.79 4294.33 1498.03V1624.72H3168.66V1677.25C3168.66 1800.85 3205.45 1902.82 3279.02 1983.16C3354.7 2061.44 3461.91 2100.58 3600.64 2100.58C3701.54 2100.58 3786.68 2078.95 3856.05 2035.69C3925.41 1992.43 3984.27 1933.72 4032.62 1859.56L4234.42 2054.23C4173.46 2153.11 4085.17 2232.42 3969.56 2292.16C3853.94 2349.84 3719.41 2378.68 3565.96 2378.68ZM3565.96 960.37C3507.1 960.37 3452.45 970.67 3402 991.27C3353.65 1011.87 3311.61 1040.71 3275.87 1077.79C3242.24 1114.87 3215.96 1159.16 3197.04 1210.66C3178.12 1262.16 3168.66 1318.81 3168.66 1380.61V1402.24H3931.72V1371.34C3931.72 1247.74 3899.14 1148.86 3833.97 1074.7C3768.81 998.48 3679.47 960.37 3565.96 960.37Z" fill="black"/>
<path d="M5705.87 2075.86H5690.1C5654.37 2170.62 5595.51 2244.78 5513.53 2298.34C5433.65 2351.9 5339.06 2378.68 5229.75 2378.68C5021.64 2378.68 4860.83 2305.55 4747.32 2159.29C4633.81 2010.97 4577.05 1803.94 4577.05 1538.2C4577.05 1272.46 4633.81 1066.46 4747.32 920.2C4860.83 771.88 5021.64 697.72 5229.75 697.72C5339.06 697.72 5433.65 724.5 5513.53 778.06C5595.51 829.56 5654.37 903.72 5690.1 1000.54H5705.87V55H6049.56V2341.6H5705.87V2075.86ZM5333.8 2088.22C5438.91 2088.22 5527.19 2063.5 5598.66 2014.06C5670.14 1962.56 5705.87 1895.61 5705.87 1813.21V1263.19C5705.87 1180.79 5670.14 1114.87 5598.66 1065.43C5527.19 1013.93 5438.91 988.18 5333.8 988.18C5213.98 988.18 5118.34 1026.29 5046.87 1102.51C4975.4 1176.67 4939.66 1275.55 4939.66 1399.15V1677.25C4939.66 1800.85 4975.4 1900.76 5046.87 1976.98C5118.34 2051.14 5213.98 2088.22 5333.8 2088.22Z" fill="black"/>
<rect x="6254.56" width="3001" height="1281" rx="100" fill="url(#paint0_linear_131_12)"/>
<path d="M6517.77 1004.5V277.227H6808.96C6862.47 277.227 6907.09 285.158 6942.84 301.02C6978.59 316.882 7005.46 338.899 7023.45 367.071C7041.45 395.007 7050.44 427.204 7050.44 463.662C7050.44 492.071 7044.76 517.047 7033.4 538.591C7022.03 559.898 7006.41 577.417 6986.52 591.148C6966.87 604.642 6944.38 614.23 6919.05 619.912V627.014C6946.75 628.198 6972.67 636.01 6996.82 650.452C7021.2 664.893 7040.97 685.134 7056.12 711.176C7071.27 736.981 7078.85 767.758 7078.85 803.506C7078.85 842.095 7069.26 876.541 7050.09 906.844C7031.15 936.91 7003.09 960.703 6965.92 978.222C6928.76 995.741 6882.95 1004.5 6828.5 1004.5H6517.77ZM6671.53 878.79H6796.89C6839.74 878.79 6870.99 870.622 6890.64 854.287C6910.29 837.715 6920.11 815.698 6920.11 788.236C6920.11 768.113 6915.26 750.357 6905.55 734.969C6895.85 719.58 6882 707.507 6864.01 698.747C6846.25 689.988 6825.06 685.608 6800.44 685.608H6671.53V878.79ZM6671.53 581.56H6785.53C6806.6 581.56 6825.3 577.89 6841.63 570.551C6858.21 562.975 6871.23 552.322 6880.7 538.591C6890.4 524.86 6895.26 508.406 6895.26 489.23C6895.26 462.952 6885.91 441.763 6867.2 425.665C6848.74 409.566 6822.46 401.517 6788.37 401.517H6671.53V581.56ZM7178.9 1004.5V277.227H7668.96V404.003H7332.67V577.298H7643.75V704.074H7332.67V877.724H7670.38V1004.5H7178.9ZM7763.51 404.003V277.227H8360.81V404.003H8138.15V1004.5H7986.17V404.003H7763.51ZM8495.66 1004.5H8330.89L8581.96 277.227H8780.11L9030.82 1004.5H8866.05L8683.88 443.42H8678.19L8495.66 1004.5ZM8485.37 718.634H8874.57V838.662H8485.37V718.634Z" fill="white"/>
<defs>
<linearGradient id="paint0_linear_131_12" x1="6254.56" y1="0" x2="8854.43" y2="1845.96" gradientUnits="userSpaceOnUse">
<stop stop-color="#1C64F2"/>
<stop offset="1" stop-color="#FF00FF"/>
</linearGradient>
</defs>
</svg>
